<svg xmlns="http://www.w3.org/2000/svg" viewBox="0 0 64 64"><g id="_11-Partly_Cloudy" data-name="11-Partly Cloudy"><path d="M19,11a1,1,0,0,1-1-1V7a1,1,0,0,1,2,0v3A1,1,0,0,1,19,11Z" style="fill:#ffdc78"/><path d="M19,42a1,1,0,0,1-1-1V38a1,1,0,0,1,2,0v3A1,1,0,0,1,19,42Z" style="fill:#ffdc78"/><path d="M5,25H2a1,1,0,0,1,0-2H5a1,1,0,0,1,0,2Z" style="fill:#ffdc78"/><path d="M36,25H33a1,1,0,0,1,0-2h3a1,1,0,0,1,0,2Z" style="fill:#ffdc78"/><path d="M9.1,15.1a1,1,0,0,1-.707-.293L5.565,11.979a1,1,0,1,1,1.414-1.414l2.829,2.829A1,1,0,0,1,9.1,15.1Z" style="fill:#ffdc78"/><path d="M6.272,37.728a1,1,0,0,1-.707-1.707l2.829-2.829a1,1,0,0,1,1.414,1.414L6.979,37.435A1,1,0,0,1,6.272,37.728Z" style="fill:#ffdc78"/><path d="M28.9,15.1a1,1,0,0,1-.707-1.707l2.829-2.829a1,1,0,1,1,1.414,1.414l-2.829,2.829A1,1,0,0,1,28.9,15.1Z" style="fill:#ffdc78"/><circle cx="19" cy="24" r="11" style="fill:#ffb145"/><path d="M21,31A10.964,10.964,0,0,1,10.378,17.182a10.993,10.993,0,1,0,19.244,9.636A10.974,10.974,0,0,1,21,31Z" style="fill:#fca124"/><path d="M51.491,34.894A16.064,16.064,0,0,0,37.107,26C29.42,26,24.584,30.821,23,38A10,10,0,0,0,13,48c0,6,5.357,10,12.5,10H51.393a11.553,11.553,0,1,0,.1-23.106Z" style="fill:#83d9f2"/><path d="M45,55a8.8,8.8,0,0,1-.52,3H25.5c-6.05,0-10.82-2.87-12.14-7.41a3.166,3.166,0,0,1-.12-.44c-.04-.17-.07-.34-.1-.52a5.969,5.969,0,0,1-.09-.61c-.03-.33-.05-.67-.05-1.02a10,10,0,0,1,19.89-1.43A8.9,8.9,0,0,1,36,46,9,9,0,0,1,45,55Z" style="fill:#a4eaff"/><path d="M47.977,53.046A9.489,9.489,0,0,0,36.546,44.2,12.5,12.5,0,0,0,24.5,35c-.2,0-.4.021-.595.03A19.913,19.913,0,0,0,23,38a9.993,9.993,0,0,1,9.769,7.936c.044.21.09.419.121.634A8.9,8.9,0,0,1,36,46a9.1,9.1,0,0,1,.909.046A9,9,0,0,1,45,55a8.8,8.8,0,0,1-.52,3h6.913a11.584,11.584,0,0,0,11.462-9.816C57.083,55.735,51.335,54.723,47.977,53.046Z" style="fill:#69cae6"/></g></svg>