<svg xmlns="http://www.w3.org/2000/svg" viewBox="0 0 64 64"><g id="_05-Shower" data-name="05-Shower"><path d="M24.381,50.4h0a2,2,0,0,1-.767-2.777l3.143-5.283a2.131,2.131,0,0,1,2.862-.744h0a2,2,0,0,1,.767,2.777l-3.143,5.283A2.131,2.131,0,0,1,24.381,50.4Z" style="fill:#83d9f2"/><path d="M31.714,38.077h0a2,2,0,0,1-.767-2.778l3.143-5.282a2.129,2.129,0,0,1,2.862-.744h0a2,2,0,0,1,.767,2.777l-3.143,5.282A2.13,2.13,0,0,1,31.714,38.077Z" style="fill:#83d9f2"/><path d="M17.048,62.727h0a2,2,0,0,1-.767-2.777l3.143-5.282a2.13,2.13,0,0,1,2.862-.745h0a2,2,0,0,1,.767,2.778L19.91,61.983A2.129,2.129,0,0,1,17.048,62.727Z" style="fill:#83d9f2"/><path d="M15.6,41.3h0a2.055,2.055,0,0,1-.781-2.844l3.2-5.41a2.163,2.163,0,0,1,2.914-.762h0a2.056,2.056,0,0,1,.781,2.845l-3.2,5.409A2.162,2.162,0,0,1,15.6,41.3Z" style="fill:#83d9f2"/><path d="M7.067,55.721h0a2.056,2.056,0,0,1-.781-2.845l3.2-5.409a2.162,2.162,0,0,1,2.914-.762h0a2.055,2.055,0,0,1,.781,2.844l-3.2,5.41A2.163,2.163,0,0,1,7.067,55.721Z" style="fill:#83d9f2"/><path d="M43.6,41.3h0a2.055,2.055,0,0,1-.781-2.844l3.2-5.41a2.163,2.163,0,0,1,2.914-.762h0a2.056,2.056,0,0,1,.781,2.845l-3.2,5.409A2.162,2.162,0,0,1,43.6,41.3Z" style="fill:#83d9f2"/><path d="M35.067,55.721h0a2.056,2.056,0,0,1-.781-2.845l3.2-5.409a2.162,2.162,0,0,1,2.914-.762h0a2.055,2.055,0,0,1,.781,2.844l-3.2,5.41A2.163,2.163,0,0,1,35.067,55.721Z" style="fill:#83d9f2"/><path d="M47,37a13,13,0,0,0,.109-25.994,17.982,17.982,0,0,0-33.68,4.119A10.993,10.993,0,0,0,4,26c0,6.075,6,11,14,11Z" style="fill:#d2d2d6"/><path d="M47.11,11H47a12.991,12.991,0,0,0-11.3,6.59A12,12,0,0,0,23.05,37H18C10,37,4,32.08,4,26a11,11,0,0,1,9.43-10.88A17.985,17.985,0,0,1,47.11,11Z" style="fill:#b9b9bd"/><path d="M16,27a5.828,5.828,0,0,1-7,3c-2.681-.874-4.271-3.333-4.8-6.085A11.009,11.009,0,0,0,4,26c0,6.08,6,11,14,11h5.05a12,12,0,0,1,7.29-19.872C23.63,17.152,19.179,21.437,16,27Z" style="fill:#9b9b9e"/><path d="M35.143,17.422c.2.054.4.105.591.168A12.991,12.991,0,0,1,47.034,11h.11a18,18,0,0,0-1.111-1.908C37.581,9.876,35.573,15.574,35.143,17.422Z" style="fill:#9b9b9e"/><path d="M36.952,29.273a2.129,2.129,0,0,0-2.862.744L30.947,35.3A1.968,1.968,0,0,0,30.8,37h3.975l2.945-4.95A2,2,0,0,0,36.952,29.273Z" style="fill:#bcbcbf"/><path d="M20.933,32.279a2.163,2.163,0,0,0-2.914.762l-2.255,3.813A18.731,18.731,0,0,0,18,37h2.6l1.11-1.876A2.056,2.056,0,0,0,20.933,32.279Z" style="fill:#767678"/><path d="M48.933,32.279a2.163,2.163,0,0,0-2.914.762L43.677,37H47a13.037,13.037,0,0,0,1.675-.12l1.039-1.756A2.056,2.056,0,0,0,48.933,32.279Z" style="fill:#bcbcbf"/><path d="M21.714,35.124a2.056,2.056,0,0,0-.781-2.845,2.2,2.2,0,0,0-.528-.2A11.893,11.893,0,0,0,21.7,35.153Z" style="fill:#bcbcbf"/></g></svg>