<svg xmlns="http://www.w3.org/2000/svg" viewBox="0 0 64 64"><g id="_08-Storms" data-name="08-Storms"><path d="M47,37a13,13,0,0,0,.109-25.994,17.982,17.982,0,0,0-33.68,4.119A10.993,10.993,0,0,0,4,26c0,6.075,6,11,14,11Z" style="fill:#b9b9bd"/><path d="M47.11,11H47a12.991,12.991,0,0,0-11.3,6.59A12,12,0,0,0,23.05,37H18C10,37,4,32.08,4,26a11,11,0,0,1,9.43-10.88A17.985,17.985,0,0,1,47.11,11Z" style="fill:#9b9b9e"/><path d="M16,27a5.828,5.828,0,0,1-7,3c-2.681-.874-4.271-3.333-4.8-6.085A11.009,11.009,0,0,0,4,26c0,6.08,6,11,14,11h5.05a12,12,0,0,1,7.29-19.872C23.63,17.152,19.179,21.437,16,27Z" style="fill:#7d7d80"/><path d="M35.143,17.422c.2.054.4.105.591.168A12.991,12.991,0,0,1,47.034,11h.11a18,18,0,0,0-1.111-1.908C37.581,9.876,35.573,15.574,35.143,17.422Z" style="fill:#7d7d80"/><polygon points="28 57 32 45 23 45 35 31 31 42 39 42 28 57" style="fill:#ffdc78"/><path d="M3,58.739H3a1.917,1.917,0,0,1-.732-2.657l1-1.685A2.031,2.031,0,0,1,6,53.685H6a1.916,1.916,0,0,1,.732,2.657l-1,1.685A2.031,2.031,0,0,1,3,58.739Z" style="fill:#83d9f2"/><path d="M8,50.315H8a1.916,1.916,0,0,1-.732-2.657l1-1.685A2.031,2.031,0,0,1,11,45.261h0a1.917,1.917,0,0,1,.732,2.657l-1,1.685A2.031,2.031,0,0,1,8,50.315Z" style="fill:#83d9f2"/><path d="M13,62.739h0a1.917,1.917,0,0,1-.732-2.657l1-1.685A2.031,2.031,0,0,1,16,57.685h0a1.916,1.916,0,0,1,.732,2.657l-1,1.685A2.031,2.031,0,0,1,13,62.739Z" style="fill:#83d9f2"/><path d="M18,54.315h0a1.916,1.916,0,0,1-.732-2.657l1-1.685A2.031,2.031,0,0,1,21,49.261h0a1.917,1.917,0,0,1,.732,2.657l-1,1.685A2.031,2.031,0,0,1,18,54.315Z" style="fill:#83d9f2"/><path d="M41,58.739h0a1.917,1.917,0,0,1-.732-2.657l1-1.685A2.031,2.031,0,0,1,44,53.685h0a1.916,1.916,0,0,1,.732,2.657l-1,1.685A2.031,2.031,0,0,1,41,58.739Z" style="fill:#83d9f2"/><path d="M46,50.315h0a1.916,1.916,0,0,1-.732-2.657l1-1.685A2.031,2.031,0,0,1,49,45.261h0a1.917,1.917,0,0,1,.732,2.657l-1,1.685A2.031,2.031,0,0,1,46,50.315Z" style="fill:#83d9f2"/><path d="M51,62.739h0a1.917,1.917,0,0,1-.732-2.657l1-1.685A2.031,2.031,0,0,1,54,57.685h0a1.916,1.916,0,0,1,.732,2.657l-1,1.685A2.031,2.031,0,0,1,51,62.739Z" style="fill:#83d9f2"/><path d="M56,54.315h0a1.916,1.916,0,0,1-.732-2.657l1-1.685A2.031,2.031,0,0,1,59,49.261h0a1.917,1.917,0,0,1,.732,2.657l-1,1.685A2.031,2.031,0,0,1,56,54.315Z" style="fill:#83d9f2"/></g></svg>