<svg xmlns="http://www.w3.org/2000/svg" viewBox="0 0 64 64"><g id="_15-Sun" data-name="15-Sun"><circle cx="32" cy="32" r="20" style="fill:#ffb145"/><path d="M36,44A19.93,19.93,0,0,1,16.591,19.252a19.993,19.993,0,1,0,34.818,17.5A19.956,19.956,0,0,1,36,44Z" style="fill:#fca124"/><path d="M32,10a1,1,0,0,1-1-1V2a1,1,0,0,1,2,0V9A1,1,0,0,1,32,10Z" style="fill:#ffdc78"/><path d="M32,63a1,1,0,0,1-1-1V55a1,1,0,0,1,2,0v7A1,1,0,0,1,32,63Z" style="fill:#ffdc78"/><path d="M62,33H55a1,1,0,0,1,0-2h7a1,1,0,0,1,0,2Z" style="fill:#ffdc78"/><path d="M9,33H2a1,1,0,0,1,0-2H9a1,1,0,0,1,0,2Z" style="fill:#ffdc78"/><path d="M53.92,54.92a1,1,0,0,1-.707-.293l-5.656-5.656a1,1,0,1,1,1.414-1.414l5.656,5.656a1,1,0,0,1-.707,1.707Z" style="fill:#ffdc78"/><path d="M15.736,16.736a1,1,0,0,1-.707-.293L9.373,10.787a1,1,0,0,1,1.414-1.414l5.656,5.656a1,1,0,0,1-.707,1.707Z" style="fill:#ffdc78"/><path d="M10.08,54.92a1,1,0,0,1-.707-1.707l5.656-5.656a1,1,0,1,1,1.414,1.414l-5.656,5.656A1,1,0,0,1,10.08,54.92Z" style="fill:#ffdc78"/><path d="M48.264,16.736a1,1,0,0,1-.707-1.707l5.656-5.656a1,1,0,0,1,1.414,1.414l-5.656,5.656A1,1,0,0,1,48.264,16.736Z" style="fill:#ffdc78"/></g></svg>