<svg xmlns="http://www.w3.org/2000/svg" viewBox="0 0 64 64"><g id="_13-Scattered_T-Storms" data-name="13-Scattered T-Storms"><circle cx="16" cy="16" r="9" style="fill:#ffb145"/><path d="M25,16a8.96,8.96,0,0,0-2.132-5.81A16.587,16.587,0,0,0,19,18a9.988,9.988,0,0,0-8.651,5A9,9,0,0,0,25,16Z" style="fill:#fc9508"/><path d="M5,17H2a1,1,0,0,1,0-2H5a1,1,0,0,1,0,2Z" style="fill:#ffdc78"/><path d="M16,6a1,1,0,0,1-1-1V2a1,1,0,0,1,2,0V5A1,1,0,0,1,16,6Z" style="fill:#ffdc78"/><path d="M23.778,9.222a1,1,0,0,1-.707-1.707l2.222-2.222a1,1,0,1,1,1.414,1.414L24.485,8.929A1,1,0,0,1,23.778,9.222Z" style="fill:#ffdc78"/><path d="M6,27a1,1,0,0,1-.707-1.707l2.222-2.222a1,1,0,1,1,1.414,1.414L6.707,26.707A1,1,0,0,1,6,27Z" style="fill:#ffdc78"/><path d="M8.222,9.222a1,1,0,0,1-.707-.293L5.293,6.707A1,1,0,0,1,6.707,5.293L8.929,7.515a1,1,0,0,1-.707,1.707Z" style="fill:#ffdc78"/><path d="M51.491,16.894A16.064,16.064,0,0,0,37.107,8C29.42,8,24.584,12.821,23,20A10,10,0,0,0,13,30c0,6,5.357,10,12.5,10H51.393a11.553,11.553,0,1,0,.1-23.106Z" style="fill:#9b9b9e"/><path d="M45,37a8.8,8.8,0,0,1-.52,3H25.5c-6.05,0-10.82-2.87-12.14-7.41a3.166,3.166,0,0,1-.12-.44c-.04-.17-.07-.34-.1-.52a5.969,5.969,0,0,1-.09-.61c-.03-.33-.05-.67-.05-1.02a10,10,0,0,1,19.89-1.43A8.9,8.9,0,0,1,36,28,9,9,0,0,1,45,37Z" style="fill:#b9b9bd"/><path d="M47.977,35.046A9.489,9.489,0,0,0,36.546,26.2,12.5,12.5,0,0,0,24.5,17c-.2,0-.4.021-.595.03A19.913,19.913,0,0,0,23,20a9.993,9.993,0,0,1,9.769,7.936c.044.21.09.419.121.634A8.9,8.9,0,0,1,36,28a9.1,9.1,0,0,1,.909.046A9,9,0,0,1,45,37a8.8,8.8,0,0,1-.52,3h6.913a11.584,11.584,0,0,0,11.462-9.816C57.083,37.735,51.335,36.723,47.977,35.046Z" style="fill:#7d7d80"/><path d="M45,58a1,1,0,0,1-.894-1.447l4.69-9.379a1,1,0,0,1,1.789.894L45.9,57.447A1,1,0,0,1,45,58Z" style="fill:#83d9f2"/><path d="M54.31,57.379a1,1,0,0,1-.894-1.447l4.689-9.379a1,1,0,0,1,1.79.894l-4.69,9.379A1,1,0,0,1,54.31,57.379Z" style="fill:#83d9f2"/><path d="M10,58a1,1,0,0,1-.894-1.447l4.69-9.379a1,1,0,0,1,1.789.894L10.9,57.447A1,1,0,0,1,10,58Z" style="fill:#83d9f2"/><path d="M19.31,57.379a1,1,0,0,1-.894-1.447l4.689-9.379a1,1,0,0,1,1.79.894L20.2,56.826A1,1,0,0,1,19.31,57.379Z" style="fill:#83d9f2"/><polygon points="30 63 33 54 28 54 38 43 35 51 40 51 30 63" style="fill:#ffdc78"/></g></svg>