<svg xmlns="http://www.w3.org/2000/svg" viewBox="0 0 64 64"><g id="_03-windy" data-name="03-windy"><path d="M47,37a13,13,0,0,0,.109-25.994,17.982,17.982,0,0,0-33.68,4.119A10.993,10.993,0,0,0,4,26c0,6.075,6,11,14,11Z" style="fill:#a4eaff"/><path d="M47.11,11H47a12.991,12.991,0,0,0-11.3,6.59A12,12,0,0,0,23.05,37H18C10,37,4,32.08,4,26a11,11,0,0,1,9.43-10.88A17.985,17.985,0,0,1,47.11,11Z" style="fill:#83d9f2"/><path d="M16,27a5.828,5.828,0,0,1-7,3c-2.681-.874-4.271-3.333-4.8-6.085A11.009,11.009,0,0,0,4,26c0,6.08,6,11,14,11h5.05a12,12,0,0,1,7.29-19.872C23.63,17.152,19.179,21.437,16,27Z" style="fill:#69cae6"/><path d="M35.143,17.422c.2.054.4.105.591.168A12.991,12.991,0,0,1,47.034,11h.11a18,18,0,0,0-1.111-1.908C37.581,9.876,35.573,15.574,35.143,17.422Z" style="fill:#69cae6"/><path d="M62,47H37a4,4,0,0,1,0-8,3.941,3.941,0,0,1,4,3.919,1.035,1.035,0,0,1-1,1.04A.966.966,0,0,1,39,43a1.94,1.94,0,0,0-1.919-2A2,2,0,1,0,37,45H62a1,1,0,0,1,0,2Z" style="fill:#d2d2d6"/><path d="M62,38H25a6,6,0,0,1,0-12,5.943,5.943,0,0,1,6,5.919V33a1,1,0,0,1-2,0V31.919A3.923,3.923,0,0,0,25.081,28,4,4,0,1,0,25,36H62a1,1,0,0,1,0,2Z" style="fill:#ededed"/><path d="M62,51H6a5,5,0,1,1,5-5,1,1,0,0,1-2,0,3,3,0,1,0-3,3H62a1,1,0,0,1,0,2Z" style="fill:#e4e4e9"/><path d="M12.081,61A4,4,0,1,1,12,53H54a1,1,0,0,1,0,2H12a2,2,0,0,0,0,4,1.94,1.94,0,0,0,2-1.919,1.035,1.035,0,0,1,1-1.04A.966.966,0,0,1,16,57,3.941,3.941,0,0,1,12.081,61Z" style="fill:#d2d2d6"/><path d="M59,55H57a1,1,0,0,1,0-2h2a1,1,0,0,1,0,2Z" style="fill:#d2d2d6"/><path d="M13,64H11a7.008,7.008,0,0,1-7-7V56a1,1,0,0,1,2,0v1a5.006,5.006,0,0,0,5,5h2a1,1,0,0,1,0,2Z" style="fill:#e4e4e9"/><path d="M31,43a3.927,3.927,0,0,1,.707-2.3,1,1,0,0,0-1.414-1.414A5.785,5.785,0,0,0,29,43a7.635,7.635,0,0,0,3.067,6H38C34.633,49,31,46.706,31,43Z" style="fill:#e4e4e9"/></g></svg>